<svg width="50" height="50" viewBox="0 0 50 50" fill="none" xmlns="http://www.w3.org/2000/svg">
<path d="M39.7656 38.4766C43.2812 34.7266 45.0391 30.2344 45.0391 25C45.0391 20.8594 43.8672 17.1094 41.5234 13.75C39.2578 10.3906 36.25 7.96875 32.5 6.48438V7.53906C32.5 8.86719 31.9922 10.0391 30.9766 11.0547C29.9609 11.9922 28.7891 12.4609 27.4609 12.4609H22.5391V17.5C22.5391 18.2031 22.2656 18.7891 21.7188 19.2578C21.25 19.7266 20.6641 19.9609 19.9609 19.9609H15.0391V25H30.0391C30.7422 25 31.3281 25.2344 31.7969 25.7031C32.2656 26.1719 32.5 26.7578 32.5 27.4609V34.9609H34.9609C37.3047 34.9609 38.9062 36.1328 39.7656 38.4766ZM22.5391 44.8047V40C21.2109 40 20.0391 39.4922 19.0234 38.4766C18.0078 37.4609 17.5 36.2891 17.5 34.9609V32.5L5.54688 20.5469C5.15625 22.1094 4.96094 23.5938 4.96094 25C4.96094 30.0781 6.64062 34.4922 10 38.2422C13.4375 41.9922 17.6172 44.1797 22.5391 44.8047ZM7.30469 7.42188C12.2266 2.5 18.125 0.0390625 25 0.0390625C31.875 0.0390625 37.7344 2.5 42.5781 7.42188C47.5 12.2656 49.9609 18.125 49.9609 25C49.9609 31.875 47.5 37.7734 42.5781 42.6953C37.7344 47.5391 31.875 49.9609 25 49.9609C18.125 49.9609 12.2266 47.5391 7.30469 42.6953C2.46094 37.7734 0.0390625 31.875 0.0390625 25C0.0390625 18.125 2.46094 12.2656 7.30469 7.42188Z" fill="#5C5C5C"/>
</svg>
