<svg width="176" height="30" viewBox="0 0 176 30" fill="none" xmlns="http://www.w3.org/2000/svg">
<path d="M23.016 0.0839996H20.37V13.524H2.646V0.0839996H0V29.568H2.646V16.17H20.37V29.568H23.016V0.0839996ZM41.0693 0C37.9333 0 35.3013 1.134 33.1733 3.402C31.0733 5.642 30.0233 8.372 30.0233 11.592V29.568H32.6693V16.38H49.5533V29.568H52.1993V11.592C52.1993 8.372 51.1493 5.642 49.0493 3.402C46.8653 1.134 44.2053 0 41.0693 0ZM49.5533 13.776H32.6693V11.592C32.6693 9.184 33.4813 7.098 35.1053 5.334C36.7573 3.542 38.7453 2.646 41.0693 2.646C43.3933 2.646 45.4093 3.542 47.1173 5.334C48.7413 7.098 49.5533 9.184 49.5533 11.592V13.776ZM78.0646 14.574C79.1566 14.042 80.0526 13.16 80.7526 11.928C81.4526 10.752 81.8026 9.492 81.8026 8.148C81.8026 5.74 80.9906 3.794 79.3666 2.31C77.7426 0.853999 75.6986 0.125999 73.2346 0.125999H61.4326H60.9286H58.7866V29.568H60.9286H61.4326H73.2346C75.6986 29.568 77.7426 28.84 79.3666 27.384C80.9906 25.9 81.8026 23.954 81.8026 21.546C81.8026 20.23 81.4596 18.949 80.7736 17.703C80.0876 16.457 79.1846 15.414 78.0646 14.574ZM61.4326 2.268H73.2346C74.9146 2.268 76.3006 2.842 77.3926 3.99C78.5686 5.222 79.1566 6.608 79.1566 8.148C79.1566 9.408 78.6946 10.57 77.7706 11.634C76.9026 12.586 75.7546 13.216 74.3266 13.524H73.2346H61.4326V2.268ZM73.2346 27.426H61.4326V16.17H73.2346H74.3266C75.7546 16.478 76.9026 17.108 77.7706 18.06C78.6946 19.124 79.1566 20.286 79.1566 21.546C79.1566 23.058 78.5686 24.43 77.3926 25.662C76.2726 26.838 74.8866 27.426 73.2346 27.426ZM88.3058 29.61H90.9518V0.0839996H88.3058V29.61ZM119.001 0.167999H96.2371V2.73H106.569V29.652H109.173V2.73H119.001V0.167999ZM147.428 0.125999H144.782V18.06C144.782 20.636 143.886 22.792 142.094 24.528C140.33 26.208 138.23 27.048 135.794 27.048C133.134 27.048 130.992 26.208 129.368 24.528C127.716 22.82 126.89 20.664 126.89 18.06V0.125999H124.202V18.06C124.202 21.252 125.294 23.968 127.478 26.208C129.69 28.504 132.462 29.652 135.794 29.652C138.902 29.652 141.632 28.504 143.984 26.208C146.28 23.968 147.428 21.252 147.428 18.06V0.125999ZM156.284 21.504C156.284 20.16 156.76 18.942 157.712 17.85C158.664 16.702 159.812 16.128 161.156 16.128H161.702H169.556V13.524H161.702H161.156C159.728 13.244 158.559 12.628 157.649 11.676C156.739 10.724 156.284 9.59 156.284 8.274C156.284 6.622 156.767 5.313 157.733 4.347C158.699 3.381 160.022 2.898 161.702 2.898H175.982V0.252001H161.702C159.546 0.252001 157.67 1.05 156.074 2.646C154.478 4.186 153.68 6.062 153.68 8.274C153.68 9.674 153.946 10.948 154.478 12.096C155.01 13.244 155.794 14.07 156.83 14.574C155.794 15.33 155.01 16.324 154.478 17.556C153.946 18.788 153.68 20.104 153.68 21.504C153.68 23.688 154.478 25.55 156.074 27.09C157.698 28.714 159.574 29.526 161.702 29.526H175.982V26.754H161.702C160.022 26.754 158.699 26.278 157.733 25.326C156.767 24.374 156.284 23.1 156.284 21.504Z" fill="#17E8B0"/>
</svg>
